<svg xmlns="http://www.w3.org/2000/svg" viewBox="0 0 38.51 38.5" id="airbnb">
  <defs>
    <linearGradient id="a" x1="2.6" x2="35.92" y1="9.63" y2="28.87" gradientUnits="userSpaceOnUse">
      <stop offset="0" stop-color="#ff5f65"></stop>
      <stop offset="1" stop-color="#e52938"></stop>
    </linearGradient>
  </defs>
  <g>
    <g>
      <path fill="url(#a)" d="M38.51,19.25c0,1.45-.16,2.86-.47,4.22-.81,3.61-2.64,6.84-5.18,9.38-3.49,3.49-8.31,5.65-13.6,5.65-.85,0-1.69-.06-2.51-.17C7.33,37.09,0,28.99,0,19.25c0-5.29,2.17-10.11,5.66-13.6S13.97,0,19.26,0s10.11,2.16,13.6,5.65c3.49,3.49,5.65,8.31,5.65,13.6Z"></path>
      <g>
        <path fill="#d3182e" d="M38.04,23.47c-.81,3.61-2.64,6.84-5.18,9.38-3.49,3.49-8.31,5.65-13.6,5.65h-2.34l-.17-.17c-2.58-2.58-5.17-5.16-7.75-7.74-.86-.83-1.46-1.93-1.64-3.17-.13-.92-.02-1.83.31-2.78.13-.33.26-.64.39-.92.2-.47.41-.91.59-1.32l.03-.05c1.77-3.86,3.7-7.77,5.69-11.64l.07-.15c.21-.39.41-.8.62-1.21.26-.46.54-.95.93-1.42.85-.97,2.01-1.54,3.29-1.54,1.01,0,1.95.37,2.72,1.04l16.04,16.04Z"></path>
        <path fill="#fff" d="M30.87,24.67c-.13-.31-.26-.64-.39-.93-.21-.46-.41-.9-.59-1.31l-.03-.03c-1.78-3.86-3.68-7.77-5.69-11.64l-.08-.15c-.21-.39-.41-.8-.62-1.21-.26-.46-.51-.95-.93-1.42-.82-1.03-2.01-1.6-3.27-1.6s-2.45.57-3.3,1.54c-.39.46-.67.95-.93,1.42-.21.41-.41.82-.62,1.21l-.08.15c-1.98,3.86-3.91,7.77-5.69,11.64l-.03.05c-.18.41-.39.85-.59,1.31-.13.28-.26.59-.39.93-.33.95-.44,1.85-.31,2.78.28,1.93,1.57,3.55,3.35,4.27.67.28,1.36.41,2.09.41.21,0,.46-.03.67-.05.85-.1,1.72-.39,2.57-.88,1.06-.59,2.06-1.44,3.19-2.68,1.13,1.24,2.16,2.09,3.19,2.68.85.49,1.72.77,2.57.88.21.03.46.05.67.05.72,0,1.44-.13,2.09-.41,1.8-.72,3.06-2.37,3.35-4.27.21-.9.1-1.8-.23-2.75ZM19.26,26.01c-1.39-1.75-2.29-3.4-2.6-4.79-.13-.59-.15-1.11-.08-1.57.05-.41.21-.77.41-1.08.49-.7,1.31-1.13,2.27-1.13s1.8.41,2.27,1.13c.21.31.36.67.41,1.08.08.46.05,1-.08,1.57-.31,1.36-1.21,3.01-2.6,4.79ZM29.53,27.22c-.18,1.34-1.08,2.5-2.34,3.01-.62.26-1.29.33-1.96.26-.64-.08-1.29-.28-1.96-.67-.93-.51-1.85-1.31-2.93-2.5,1.7-2.09,2.73-3.99,3.12-5.69.18-.8.21-1.52.13-2.19-.1-.64-.33-1.24-.7-1.75-.8-1.16-2.14-1.83-3.63-1.83s-2.83.7-3.63,1.83c-.36.51-.59,1.11-.7,1.75-.1.67-.08,1.42.13,2.19.39,1.7,1.44,3.63,3.12,5.72-1.06,1.18-2.01,1.98-2.93,2.5-.67.39-1.31.59-1.96.67-.7.08-1.36-.03-1.96-.26-1.26-.51-2.16-1.67-2.34-3.01-.08-.64-.03-1.29.23-2.01.08-.26.21-.51.33-.82.18-.41.39-.85.59-1.29l.03-.05c1.78-3.84,3.68-7.75,5.66-11.56l.08-.15c.21-.39.41-.8.62-1.18.21-.41.44-.8.72-1.13.54-.62,1.26-.95,2.06-.95s1.52.33,2.06.95c.28.33.51.72.72,1.13.21.39.41.8.62,1.18l.08.15c1.96,3.84,3.86,7.75,5.64,11.58v.03c.21.41.39.88.59,1.29.13.31.26.57.33.82.21.67.28,1.31.18,1.98Z"></path>
      </g>
    </g>
  </g>
</svg>
